<svg xmlns="http://www.w3.org/2000/svg" viewBox="13 12 70 70" width="96" height="96"><defs><linearGradient id="b" x1="0" y1="0" x2="1" y2="1"><stop offset="0" stop-color="#7FE7D6"/><stop offset="1" stop-color="#2E93E8"/></linearGradient></defs><rect width="96" height="96" fill="url(#b)"/><g fill="#1E1512"><circle cx="35" cy="34" r="11"/><circle cx="48" cy="26" r="13"/><circle cx="61" cy="34" r="11"/><circle cx="33" cy="47" r="9"/><circle cx="63" cy="47" r="9"/></g><rect x="42" y="54" width="12" height="16" rx="5" fill="#94603C"/><path d="M12 96C12 77 29 68 48 68C67 68 84 77 84 96Z" fill="#F2B84B"/><path d="M40 68C42 74 54 74 56 68" fill="none" stroke="#D99C2E" stroke-width="2"/><ellipse cx="34.5" cy="46" rx="3" ry="4" fill="#94603C"/><ellipse cx="61.5" cy="46" rx="3" ry="4" fill="#94603C"/><ellipse cx="48" cy="44" rx="14" ry="17" fill="#A8704A"/><path d="M34 46C35 58 41 61 48 61C55 61 61 58 62 46C60 55 55 58 48 58C41 58 36 55 34 46Z" fill="#94603C" opacity="0.35"/><path d="M34 40C35 31 41 28 48 28C55 28 61 31 62 40C57 35 52 34 48 34C44 34 39 35 34 40Z" fill="#1E1512"/><g fill="#F2C46B"><circle cx="34" cy="52" r="1.7"/><circle cx="62" cy="52" r="1.7"/></g></svg>